# AST/ASF file generated using VICON BodyLanguage
# -----------------------------------------------
:version 1.10
:name VICON
:units
  mass 1.0
  length 0.45
  angle deg
:documentation
   .ast/.asf automatically generated from VICON data using
   VICON BodyBuilder and BodyLanguage model FoxedUp or BRILLIANT.MOD
:root
   order TX TY TZ RX RY RZ
   axis XYZ
   position 0 0 0  
   orientation 0 0 0 
:bonedata
  begin
     id 1 
     name lhipjoint
     direction 0.722297 -0.617336 0.311742 
     length 2.6635 
     axis 0 0 0  XYZ
  end
  begin
     id 2 
     name lfemur
     direction 0.34202 -0.939693 0  
     length 7.39349  
     axis 0 0 20  XYZ
    dof rx ry rz
    limits (-160.0 20.0)
           (-70.0 70.0)
           (-60.0 70.0)
  end
  begin
     id 3 
     name ltibia
     direction 0.34202 -0.939693 0   
     length 7.36294   
     axis 0 0 20   XYZ
    dof rx
    limits (-10.0 170.0)
  end
  begin
     id 4 
     name lfoot
     direction 0.104879 -0.288152 0.951824   
     length 2.16981   
     axis -90 7.62852e-016 20   XYZ
    dof rx rz
    limits (-45.0 90.0)
           (-70.0 20.0)
  end
  begin
     id 5 
     name ltoes
     direction 1.53586e-011 -4.21895e-011 1   
     length 1.08218   
     axis -90 7.62852e-016 20   XYZ
    dof rx
    limits (-90.0 20.0)
  end
  begin
     id 6 
     name rhipjoint
     direction -0.75102 -0.589393 0.297631   
     length 2.78977  
     axis 0 0 0  XYZ 
  end
  begin
     id 7 
     name rfemur
     direction -0.34202 -0.939693 0   
     length 7.46076   
     axis 0 0 -20   XYZ
    dof rx ry rz
    limits (-160.0 20.0)
           (-70.0 70.0)
           (-70.0 60.0)
  end
  begin
     id 8 
     name rtibia
     direction -0.34202 -0.939693 0   
     length 7.31726   
     axis 0 0 -20   XYZ
    dof rx
    limits (-10.0 170.0)
 end
 begin
     id 9 
     name rfoot
     direction -0.107991 -0.296704 0.948844   
     length 2.09388  
     axis -90 -7.62852e-016 -20   XYZ
    dof rx rz
    limits (-45.0 90.0)
           (-20.0 70.0)
  end
  begin
     id 10 
     name rtoes
     direction -1.53559e-011 -4.21911e-011 1   
     length 1.04433   
     axis -90 -7.62852e-016 -20   XYZ
    dof rx
    limits (-90.0 20.0)
  end
  begin
     id 11 
     name lowerback
     direction 0.0165164 0.98272 0.184358   
     length 1.71896   
     axis 0 0 0   XYZ
    dof rx ry rz
    limits (-20.0 45.0)
           (-30.0 30.0)
           (-30.0 30.0)
  end
  begin
     id 12 
     name upperback
     direction -0.00887249 0.992297 0.123566   
     length 1.71504   
     axis 0 0 0   XYZ
    dof rx ry rz
    limits (-20.0 45.0)
           (-30.0 30.0)
           (-30.0 30.0)
  end
  begin
     id 13 
     name thorax
     direction -0.0157026 0.998908 0.0440032   
     length 1.77022   
     axis 0 0 0   XYZ
    dof rx ry rz
    limits (-20.0 45.0)
           (-30.0 30.0)
           (-30.0 30.0)
  end
  begin
     id 14 
     name lowerneck
     direction -0.0238856 0.998137 0.0561411   
     length 1.89341   
     axis 0 0 0   XYZ
    dof rx ry rz
    limits (-20.0 45.0)
           (-30.0 30.0)
           (-30.0 30.0)
  end
  begin
     id 15 
     name upperneck
     direction 0.0276574 0.952253 -0.304056   
     length 1.86999   
     axis 0 0 0   XYZ
    dof rx ry rz
    limits (-20.0 45.0)
           (-30.0 30.0)
           (-30.0 30.0)
  end
  begin
     id 16
     name head
     direction 0.00800083 0.994258 -0.106712  
     length 1.91492  
     axis 0 0 0   XYZ
    dof rx ry rz
    limits (-20.0 45.0)
           (-30.0 30.0)
           (-30.0 30.0)
  end
  begin
     id 17 
     name lclavicle
     direction 0.97203 0.225407 0.06595  
     length 3.34889  
     axis 0 0 0   XYZ
    dof ry rz
    limits (-20.0 10.0)
           (0.0 20.0)
  end
  begin
     id 18 
     name lhumerus
     direction 1 -4.48973e-011 2.20267e-027   
     length 4.85645   
     axis 180 -30 -90   XYZ
    dof rx ry rz
    limits (-60.0 90.0)
           (-90.0 90.0)
           (-90.0 90.0)
  end
  begin
     id 19
     name lradius
     direction 1 -4.4897e-011 4.60472e-027   
     length 2.79874   
     axis 180 -30 -90   XYZ
    dof rx
    limits (-10.0 170.0)
  end
  begin
     id 20
     name lwrist
     direction 1 -4.48952e-011 1.14928e-026   
     length 1.39937   
     axis -6.29373e-015 90 90   XYZ
    dof ry
    limits (-180.0 0.0)
 end
  begin
     id 21 
     name lhand
     direction 1 -4.48967e-011 2.29886e-026   
     length 0.573398   
     axis -1.46689e-014 90 90   XYZ
    dof rx rz
    limits (-90.0 90.0)
           (-45.0 45.0)
  end
  begin
     id 22 
     name lfingers
     direction 1 -4.48955e-011 4.59726e-026   
     length 0.462289   
     axis -2.93383e-014 90 90   XYZ
    dof rx
    limits (0.0 90.0)
  end
  begin
     id 23
     name lthumb
     direction 0.707107 -6.34866e-011 0.707107   
     length 0.663757   
     axis -90 45 5.69224e-014   XYZ
    dof rx rz
    limits (-45.0 45.0)
           (-45.0 45.0)
  end
  begin
     id 24 
     name rclavicle
     direction -0.981571 0.157346 0.108443   
     length 3.35257  
     axis 0 0 0   XYZ 
    dof ry rz
    limits (-10.0 20.0)
           (-20.0 0.0)
  end
  begin
     id 25 
     name rhumerus
     direction -1 -4.48967e-011 8.58308e-029  
     length 4.67018   
     axis 180 30 90   XYZ
    dof rx ry rz
    limits (-90.0 60.0)
           (-90.0 90.0)
           (-90.0 90.0)
  end
  begin
     id 26 
     name rradius
     direction -1 -4.48958e-011 4.52548e-027   
     length 2.65534   
     axis 180 30 90   XYZ
    dof rx
    limits (-10.0 170.0)
  end
  begin
     id 27 
     name rwrist
     direction -1 -4.48977e-011 1.14952e-026   
     length 1.32767   
     axis -6.29373e-015 -90 -90   XYZ
    dof ry
    limits (-180.0 0.0)
  end
  begin
     id 28
     name rhand
     direction -1 -4.48924e-011 2.29804e-026   
     length 0.594069   
     axis -1.46689e-014 -90 -90   XYZ
    dof rx rz
    limits (-90.0 90.0)
           (-45.0 45.0)
  end
  begin
     id 29
     name rfingers
     direction -1 -4.48998e-011 4.59888e-026   
     length 0.478954   
     axis -2.93383e-014 -90 -90   XYZ
    dof rx
    limits (0.0 90.0)
  end
  begin
     id 30
     name rthumb
     direction -0.707107 -6.34933e-011 0.707107   
     length 0.687685   
     axis -90 -45 -5.69224e-014   XYZ
    dof rx rz
    limits (-45.0 45.0)
           (-45.0 45.0)
  end
:hierarchy
  begin
    root lhipjoint rhipjoint lowerback
    lhipjoint lfemur
    lfemur ltibia
    ltibia lfoot
    lfoot ltoes
    rhipjoint rfemur
    rfemur rtibia
    rtibia rfoot
    rfoot rtoes
    lowerback upperback
    upperback thorax
    thorax lowerneck lclavicle rclavicle
    lowerneck upperneck
    upperneck head
    lclavicle lhumerus
    lhumerus lradius
    lradius lwrist
    lwrist lhand lthumb
    lhand lfingers
    rclavicle rhumerus
    rhumerus rradius
    rradius rwrist
    rwrist rhand rthumb
    rhand rfingers
  end

#!OML:ASF E:\pregnant2\Project 1\Capture day 1\Session 1\pregnant2.ASF
:FULLY-SPECIFIED
:DEGREES
33
root -4.24807 15.6445 20.1666 28.0067 6.10623 -0.627349
lowerback -20.4309 0.858158 2.07587
upperback -16.1515 0.911537 -0.610059
thorax -6.25444 0.280635 -1.69565
lowerneck -15.5416 -3.91421 -5.17406
upperneck 35.3019 -5.42415 3.21522
head 15.1688 -2.5549 1.31298
rclavicle 1.53064e-014 1.80894e-014
rhumerus -22.1902 6.41822 -79.4003
rradius 115.6
rwrist 36.9655
rhand -6.07762 -8.49716
rfingers 7.12502
rthumb 19.7577 -37.513
lclavicle 1.53064e-014 1.80894e-014
lhumerus -26.7844 -1.98098 79.7807
lradius 118.208
lwrist -28.0875
lhand -9.35668 15.5574
lfingers 7.12502
lthumb 16.6031 44.8672
rfemur -56.811 -3.04935 19.8402
rtibia 63.4832
rfoot -28.5491 -14.5054
rtoes -13.8807
lfemur -57.6683 6.57588 -20.222
ltibia 62.8191
lfoot -28.2919 5.53103
ltoes -13.6663
34
root -4.24919 15.6466 20.1663 28.0062 6.11515 -0.626617
lowerback -20.4265 0.860695 2.08088
upperback -16.1517 0.914399 -0.610427
thorax -6.25678 0.281649 -1.6985
lowerneck -15.5451 -3.91268 -5.17184
upperneck 35.3085 -5.42091 3.21105
head 15.1723 -2.55366 1.31143
rclavicle -6.21202e-016 -1.05356e-014
rhumerus -22.1742 6.41436 -79.3868
rradius 115.595
rwrist 36.964
rhand -6.07155 -8.49454
rfingers 7.12502
rthumb 19.7636 -37.5098
lclavicle -6.21202e-016 -1.05356e-014
lhumerus -26.7728 -1.9817 79.7731
lradius 118.209
lwrist -28.0876
lhand -9.36739 15.5557
lfingers 7.12502
lthumb 16.5928 44.8664
rfemur -56.7957 -3.05293 19.8464
rtibia 63.4521
rfoot -28.5321 -14.5042
rtoes -13.8727
lfemur -57.654 6.57317 -20.2162
ltibia 62.7846
lfoot -28.272 5.52148
ltoes -13.6674
35
root -4.25032 15.6488 20.1662 28.0046 6.12556 -0.627205
lowerback -20.424 0.863433 2.08781
upperback -16.1513 0.917209 -0.610787
thorax -6.25746 0.28249 -1.7024
lowerneck -15.5453 -3.91207 -5.17187
upperneck 35.3133 -5.4196 3.21001
head 15.1745 -2.55318 1.31129
rclavicle -6.70898e-016 4.96962e-016
rhumerus -22.1585 6.40831 -79.3753
rradius 115.589
rwrist 36.9647
rhand -6.06652 -8.49599
rfingers 7.12502
rthumb 19.7684 -37.5107
lclavicle -6.70898e-016 4.96962e-016
lhumerus -26.7612 -1.98579 79.7662
lradius 118.21
lwrist -28.0892
lhand -9.38195 15.5503
lfingers 7.12502
lthumb 16.5787 44.8621
rfemur -56.7783 -3.05828 19.8556
rtibia 63.4206
rfoot -28.5152 -14.5036
rtoes -13.8685
lfemur -57.6383 6.56872 -20.2071
ltibia 62.7498
lfoot -28.2539 5.5093
ltoes -13.6637
36
root -4.25137 15.651 20.166 28.0032 6.13624 -0.628658
lowerback -20.4223 0.867399 2.09821
upperback -16.1505 0.921082 -0.612152
thorax -6.25711 0.283509 -1.70916
lowerneck -15.5465 -3.91228 -5.17427
upperneck 35.3187 -5.42016 3.21267
head 15.1776 -2.55327 1.31277
rclavicle 1.25483e-014 -1.68967e-015
rhumerus -22.1433 6.40102 -79.3661
rradius 115.581
rwrist 36.9645
rhand -6.06579 -8.50031
rfingers 7.12502
rthumb 19.7691 -37.515
lclavicle 1.25483e-014 -1.68967e-015
lhumerus -26.7457 -1.99414 79.7605
lradius 118.21
lwrist -28.0917
lhand -9.39769 15.5437
lfingers 7.12502
lthumb 16.5636 44.8568
rfemur -56.7609 -3.06491 19.8661
rtibia 63.389
rfoot -28.4993 -14.5015
rtoes -13.8638
lfemur -57.6236 6.56394 -20.1979
ltibia 62.7142
lfoot -28.2344 5.50307
ltoes -13.676
37
root -4.25239 15.6531 20.1658 28.0014 6.14842 -0.630749
lowerback -20.4198 0.871743 2.11112
upperback -16.1494 0.925099 -0.614245
thorax -6.25687 0.28433 -1.71811
lowerneck -15.549 -3.91298 -5.1776
upperneck 35.3256 -5.42213 3.21792
head 15.182 -2.5537 1.31523
rclavicle 4.09993e-015 1.75924e-014
rhumerus -22.1286 6.39251 -79.3589
rradius 115.573
rwrist 36.9682
rhand -6.06985 -8.50532
rfingers 7.12502
rthumb 19.7652 -37.5204
lclavicle 4.09993e-015 1.75924e-014
lhumerus -26.7275 -2.00596 79.755
lradius 118.208
lwrist -28.0948
lhand -9.41389 15.5381
lfingers 7.12502
lthumb 16.548 44.8526
rfemur -56.743 -3.07311 19.8783
rtibia 63.3581
rfoot -28.4846 -14.4996
rtoes -13.8589
lfemur -57.6093 6.55759 -20.1876
ltibia 62.6783
lfoot -28.2129 5.50275
ltoes -13.7001
38
root -4.2534 15.6553 20.1656 27.999 6.16076 -0.632736
lowerback -20.417 0.875516 2.12394
upperback -16.1489 0.928415 -0.61534
thorax -6.25747 0.284846 -1.72604
lowerneck -15.55 -3.91428 -5.1832
upperneck 35.3338 -5.42439 3.22307
head 15.1867 -2.5546 1.31804
rclavicle 1.86609e-014 -7.95139e-016
rhumerus -22.1164 6.38559 -79.3521
rradius 115.562
rwrist 36.9743
rhand -6.07562 -8.5072
rfingers 7.12502
rthumb 19.7597 -37.5228
lclavicle 1.86609e-014 -7.95139e-016
lhumerus -26.7092 -2.01844 79.7514
lradius 118.205
lwrist -28.098
lhand -9.42557 15.5349
lfingers 7.12502
lthumb 16.5367 44.8503
rfemur -56.7244 -3.08209 19.8905
rtibia 63.3276
rfoot -28.4716 -14.4971
rtoes -13.8554
lfemur -57.5944 6.55046 -20.177
ltibia 62.6419
lfoot -28.1913 5.50142
ltoes -13.7136
39
root -4.25442 15.6573 20.1654 27.9959 6.17278 -0.634321
lowerback -20.4111 0.878574 2.13578
upperback -16.1498 0.931031 -0.615921
thorax -6.26135 0.285072 -1.73301
lowerneck -15.5503 -3.91527 -5.18769
upperneck 35.3447 -5.42611 3.2266
head 15.1925 -2.55536 1.3201
rclavicle 3.47873e-016 -1.50082e-014
rhumerus -22.1071 6.3823 -79.3461
rradius 115.55
rwrist 36.9795
rhand -6.08117 -8.51142
rfingers 7.12502
rthumb 19.7543 -37.5276
lclavicle 3.47873e-016 -1.50082e-014
lhumerus -26.6941 -2.03222 79.7478
lradius 118.202
lwrist -28.1032
lhand -9.43295 15.5354
lfingers 7.12502
lthumb 16.5296 44.8514
rfemur -56.706 -3.09026 19.9017
rtibia 63.2982
rfoot -28.4592 -14.4939
rtoes -13.8489
lfemur -57.5797 6.54391 -20.1671
ltibia 62.6065
lfoot -28.1693 5.50091
ltoes -13.7299
40
root -4.25548 15.6594 20.165 27.992 6.18403 -0.635533
lowerback -20.4029 0.880443 2.1459
upperback -16.1513 0.93241 -0.61515
thorax -6.26706 0.284871 -1.73778
lowerneck -15.5545 -3.9159 -5.19078
upperneck 35.3612 -5.4266 3.22694
head 15.2016 -2.55579 1.32076
rclavicle 5.71506e-016 4.77083e-015
rhumerus -22.0964 6.38172 -79.34
rradius 115.534
rwrist 36.9943
rhand -6.09807 -8.51445
rfingers 7.12502
rthumb 19.7381 -37.5323
lclavicle 5.71506e-016 4.77083e-015
lhumerus -26.6809 -2.04441 79.7443
lradius 118.197
lwrist -28.1107
lhand -9.4347 15.5345
lfingers 7.12502
lthumb 16.528 44.8506
rfemur -56.6876 -3.09739 19.912
rtibia 63.2689
rfoot -28.4465 -14.4908
rtoes -13.842
lfemur -57.5646 6.53735 -20.1572
ltibia 62.5721
lfoot -28.1484 5.49963
ltoes -13.7354
41
root -4.25659 15.6614 20.1646 27.9876 6.19469 -0.638209
lowerback -20.3938 0.881441 2.1556
upperback -16.1544 0.932788 -0.612402
thorax -6.27533 0.284269 -1.74034
lowerneck -15.5565 -3.91572 -5.19345
upperneck 35.3803 -5.4254 3.22505
head 15.2112 -2.5558 1.32078
rclavicle -5.66536e-015 1.04362e-014
rhumerus -22.0863 6.38262 -79.3344
rradius 115.513
rwrist 37.0196
rhand -6.13116 -8.50993
rfingers 7.12502
rthumb 19.7063 -37.5311
lclavicle -5.66536e-015 1.04362e-014
lhumerus -26.6745 -2.05557 79.7411
lradius 118.192
lwrist -28.1183
lhand -9.43394 15.5355
lfingers 7.12502
lthumb 16.5287 44.8515
rfemur -56.6689 -3.10203 19.923
rtibia 63.2394
rfoot -28.4337 -14.4892
rtoes -13.8359
lfemur -57.5495 6.53245 -20.1457
ltibia 62.5401
lfoot -28.1286 5.49475
ltoes -13.7284
42
root -4.25766 15.6634 20.1642 27.9825 6.20405 -0.64192
lowerback -20.3848 0.882224 2.16568
upperback -16.1573 0.932831 -0.608183
thorax -6.28328 0.283545 -1.74158
lowerneck -15.5598 -3.9152 -5.19584
upperneck 35.4024 -5.42325 3.22157
head 15.2225 -2.55556 1.32024
rclavicle -9.44227e-015 -3.08116e-015
rhumerus -22.0746 6.38507 -79.3286
rradius 115.485
rwrist 37.0575
rhand -6.18985 -8.5017
rfingers 7.12502
rthumb 19.6498 -37.5286
lclavicle -9.44227e-015 -3.08116e-015
lhumerus -26.6707 -2.06571 79.739
lradius 118.186
lwrist -28.1251
lhand -9.438 15.5367
lfingers 7.12502
lthumb 16.5248 44.8531
rfemur -56.6497 -3.10553 19.9343
rtibia 63.2094
rfoot -28.4189 -14.4882
rtoes -13.8345
lfemur -57.5336 6.52851 -20.1336
ltibia 62.5106
lfoot -28.1119 5.49078
ltoes -13.7206
43
root -4.2588 15.6653 20.1639 27.9768 6.21351 -0.64748
lowerback -20.3778 0.883037 2.17585
upperback -16.1593 0.93287 -0.602817
thorax -6.28917 0.282916 -1.7416
lowerneck -15.5628 -3.91464 -5.19861
upperneck 35.4242 -5.42113 3.21865
head 15.2335 -2.55531 1.32001
rclavicle -6.95746e-016 1.27222e-014
rhumerus -22.0607 6.38456 -79.3233
rradius 115.454
rwrist 37.1039
rhand -6.26141 -8.48891
rfingers 7.12502
rthumb 19.581 -37.5228
lclavicle -6.95746e-016 1.27222e-014
lhumerus -26.668 -2.07609 79.7381
lradius 118.181
lwrist -28.1285
lhand -9.44369 15.5362
lfingers 7.12502
lthumb 16.5193 44.853
rfemur -56.6298 -3.1079 19.9479
rtibia 63.1793
rfoot -28.4029 -14.4901
rtoes -13.8341
lfemur -57.5169 6.52451 -20.1182
ltibia 62.4833
lfoot -28.0975 5.4844
ltoes -13.7009
